<svg version="1" xmlns="http://www.w3.org/2000/svg" width="346.667" height="346.667" viewBox="0 0 260.000000 260.000000"><path d="M9.5 1.4c-3.7 1.6-7 5.2-8.4 8.9-1.4 3.7-1.4 92.3 0 88.8C3.9 92.1 12.9 86 20.5 86c5.2 0 13.8 4.4 16.6 8.5l2.4 3.4 21.2.3 21.3.3V26h64.5c63.4 0 64.5 0 70.2 2.1 11.1 4.1 23.7 13.4 30.3 22.4 6.5 8.7 10.7 19.3 12 30 .4 3.3.7-11.2.6-32.2-.1-36.9-.2-38.2-2.2-40.9-1.1-1.5-3.3-3.7-4.8-4.8C249.9.5 249.3.5 131.2.3 33.8.1 12 .3 9.5 1.4z"/><path d="M101 53.2v9.3h48.8c35.8 0 49.8.3 52.8 1.2 5.5 1.7 11.7 7.3 14.6 13.1 2.9 6 3.2 19.7.4 25l-1.7 3.2 3.2 1.8c1.7.9 5.4 3.2 8.1 4.9 2.8 1.8 5.4 3 5.9 2.7 2-1.2 5.7-10.2 7.1-17.1 1.9-8.8.5-19.4-3.6-28.6-3.5-7.9-13-17.4-21.7-21.5l-6.7-3.2H101v9.2z"/><path d="M101 89.5V98h48.4c53.1 0 50.7.3 52.1-6 .7-3.4-.1-6.7-2.3-9.3-1.4-1.6-5.1-1.7-49.9-1.7H101v8.5zM258.7 98.3c-.7 6.7-5.8 20.2-9.9 25.8-2.4 3.4-2.8 4.6-1.9 5.8 6.4 8.9 10.9 19.6 12.1 28.6.5 3.8.8-7.3.9-29.8 0-19.6-.1-35.7-.3-35.7-.2 0-.6 2.4-.9 5.3zM16.6 102.1c-5.1 4-2.4 12.1 4 12.1 6.2 0 8.8-7.7 4-11.9-3.3-2.8-4.6-2.9-8-.2zM.3 181.7c.2 67.1.2 68.2 2.3 70.9 1.1 1.5 3.3 3.7 4.8 4.8 2.7 2.1 3.1 2.1 122.6 2.1s119.9 0 122.6-2.1c1.5-1.1 3.7-3.3 4.8-4.8 2-2.7 2.1-4 2.2-40.9.1-23-.1-35.8-.6-32.2-2.9 21.2-17.8 39.9-40.9 50.9l-8.6 4.1-63.7.3-63.8.2v-75H70.2c-10.8 0-12.1.2-13.8 2.1-6.8 7.5-18.3 6.3-24.8-2.4-2.9-4-2.9-13.4 0-17.4 6.4-8.6 17.8-10 24.4-2.9 2.4 2.5 2.9 2.6 14.3 2.6H82v-25.5l-21.3.3-21.2.3-2.4 3.4c-2.8 4.1-11.4 8.5-16.5 8.5-7.1 0-16.9-6.5-19.5-13-.7-1.7-.9 19.3-.8 65.7z"/><path d="M101 129.5V142h100.1l4.9 2.5c9.8 4.9 15 16 13.5 28.4-1.2 9.9-6.6 17.1-15.8 21-4.7 2-6.6 2.1-53.8 2.1H101v21h50.9c55.2 0 51.9.3 64-5.8 7.2-3.7 16.9-13.5 20.5-20.7 4.4-9 5.9-19.6 4.2-29.4-3.1-17.6-13-29.4-33.2-39.7l-7.7-3.9-49.4-.3-49.3-.3v12.6zM42.2 146.6c-2.4 1.7-3 6.2-1 8.2 2.9 2.9 9.8.1 9.8-3.9 0-4.2-5.3-6.8-8.8-4.3z"/><path d="M101 168.5v8.5h98.1l1.5-3.6c1.8-4.4 1-9.9-1.9-11.9-1.8-1.3-9.4-1.5-49.9-1.5H101v8.5z"/></svg>